<svg xmlns="http://www.w3.org/2000/svg" viewBox="0 0 360 320" role="img" aria-label="Province of British Columbia">
  <path d="M 60 130 A 120 120 0 0 1 300 130 Z" fill="#FCBA19"/>
  <g stroke="#FFFFFF" stroke-width="3" stroke-linecap="round">
    <line x1="180" y1="35" x2="180" y2="115"/>
    <line x1="158" y1="38" x2="170" y2="115"/>
    <line x1="202" y1="38" x2="190" y2="115"/>
    <line x1="135" y1="46" x2="160" y2="116"/>
    <line x1="225" y1="46" x2="200" y2="116"/>
    <line x1="113" y1="58" x2="151" y2="118"/>
    <line x1="247" y1="58" x2="209" y2="118"/>
    <line x1="93" y1="74" x2="143" y2="120"/>
    <line x1="267" y1="74" x2="217" y2="120"/>
    <line x1="76" y1="92" x2="135" y2="124"/>
    <line x1="284" y1="92" x2="225" y2="124"/>
    <line x1="64" y1="112" x2="129" y2="128"/>
    <line x1="296" y1="112" x2="231" y2="128"/>
  </g>
  <path d="M 60 130 L 95 95 L 115 115 L 140 78 L 165 110 L 190 88 L 215 105 L 245 80 L 270 108 L 300 130 Z" fill="#FFFFFF"/>
  <path d="M 60 130 Q 90 122, 120 130 T 180 130 T 240 130 T 300 130 L 300 155 Q 270 165, 240 155 T 180 155 T 120 155 T 60 155 Z" fill="#234B7E"/>
  <text x="180" y="220" text-anchor="middle" font-family="Georgia, 'Times New Roman', Times, serif" font-size="44" font-weight="600" fill="#234B7E" letter-spacing="1">BRITISH</text>
  <text x="180" y="265" text-anchor="middle" font-family="Georgia, 'Times New Roman', Times, serif" font-size="44" font-weight="600" fill="#234B7E" letter-spacing="1">COLUMBIA</text>
  <rect x="80" y="285" width="200" height="4" fill="#FCBA19"/>
</svg>